#!OML:ASF F:\VICON\USERDATA\INSTALL\rory3\rory3.ASF
:FULLY-SPECIFIED
:DEGREES
1842
root -3.33694 17.9943 -1.26681 6.49926 -12.4116 2.72201
lowerback 23.9972 9.98719 -0.85771
upperback 9.81678 12.2707 -5.46446
thorax -1.09863 6.22518 -8.35296
lowerneck -6.76006 -16.8065 -16.7946
upperneck 16.4674 -24.6961 19.553
head 11.1274 -11.2085 5.82924
rclavicle -7.4743e-014 6.81831e-014
rhumerus 64.6105 24.2351 -28.7837
rradius 76.4085
rwrist 12.8839
rhand -23.7106 16.6725
rfingers 7.12502
rthumb 2.75688 -13.2895
lclavicle -7.4743e-014 6.81831e-014
lhumerus -63.898 28.4598 45.4025
lradius 30.6318
lwrist 17.9399
lhand -20.2728 13.8735
lfingers 7.12502
lthumb 6.07646 43.7663
rfemur -23.5213 -13.5481 28.0475
rtibia 26.095
rfoot -6.08807 5.77301
rtoes 20.117
lfemur -109.819 -9.90556 -0.427522
ltibia 83.6975
lfoot 16.1552 -15.9463
ltoes -12.7184
1843
root -3.34658 17.9924 -1.25972 6.49861 -12.2188 2.73433
lowerback 23.7015 9.82176 -0.73122
upperback 9.87495 12.1098 -5.55435
thorax -0.867116 6.16363 -8.41926
lowerneck -6.96111 -16.8165 -16.7523
upperneck 16.3274 -24.7756 19.9527
head 11.1935 -11.2071 5.92754
rclavicle -1.51076e-014 5.32743e-014
rhumerus 63.7515 24.1377 -29.2284
rradius 76.3343
rwrist 13.0098
rhand -23.618 16.7241
rfingers 7.12502
rthumb 2.8463 -13.2367
lclavicle -1.51076e-014 5.32743e-014
lhumerus -63.1707 28.3377 45.7586
lradius 30.7157
lwrist 17.7183
lhand -20.2544 14.524
lfingers 7.12502
lthumb 6.09418 44.4164
rfemur -23.5263 -13.6391 28.0117
rtibia 26.2107
rfoot -6.2803 5.88679
rtoes 20.0937
lfemur -109.088 -10 -1.03474
ltibia 84.1405
lfoot 15.3111 -16.6533
ltoes -15.86
1844
root -3.35868 17.9919 -1.25464 6.48962 -12.1265 2.76541
lowerback 23.7455 9.85557 -1.09751
upperback 9.69817 12.0681 -5.39906
thorax -1.20639 6.10718 -8.08132
lowerneck -7.41629 -16.8865 -16.8563
upperneck 16.677 -24.8721 19.9038
head 11.4367 -11.2109 5.86898
rclavicle 5.10877e-014 -6.02318e-014
rhumerus 62.6726 24.4954 -29.4837
rradius 76.3632
rwrist 12.962
rhand -23.4392 16.4699
rfingers 7.12502
rthumb 3.01894 -13.4885
lclavicle 5.10877e-014 -6.02318e-014
lhumerus -62.8689 28.2663 46.0004
lradius 30.7547
lwrist 17.2821
lhand -20.3152 14.9472
lfingers 7.12502
lthumb 6.03547 44.8413
rfemur -23.557 -13.6561 27.9847
rtibia 26.3482
rfoot -6.38407 5.90938
rtoes 19.4478
lfemur -108.258 -9.94022 -1.64039
ltibia 84.578
lfoot 15.0127 -16.6484
ltoes -16.1258
1845
root -3.36791 17.9945 -1.24718 6.57301 -12.0073 2.66184
lowerback 23.3695 9.73031 -0.962819
upperback 9.66229 11.9651 -5.40717
thorax -1.05199 6.06626 -8.07279
lowerneck -7.85003 -16.838 -16.7795
upperneck 16.8924 -24.8127 19.908
head 11.5778 -11.1393 5.84402
rclavicle 1.4074e-013 -8.96519e-014
rhumerus 61.5365 24.5977 -29.8948
rradius 76.5075
rwrist 12.9899
rhand -23.4566 16.4985
rfingers 7.12502
rthumb 3.00215 -13.4601
lclavicle 1.4074e-013 -8.96519e-014
lhumerus -62.2139 28.2569 46.1647
lradius 30.7241
lwrist 16.859
lhand -20.1724 14.8278
lfingers 7.12502
lthumb 6.17338 44.7178
rfemur -23.6702 -13.8611 28.1445
rtibia 26.4811
rfoot -6.2913 6.01914
rtoes 19.7899
lfemur -107.456 -9.85719 -2.02292
ltibia 85.0476
lfoot 14.7291 -16.3037
ltoes -15.2762
1846
root -3.37426 17.9955 -1.23418 6.51367 -11.8829 2.64431
lowerback 22.8596 9.66399 -1.06679
upperback 9.72997 11.9048 -5.23137
thorax -0.805522 6.03423 -7.71486
lowerneck -8.1345 -16.7846 -16.7147
upperneck 17.0584 -24.6744 19.6296
head 11.607 -11.0662 5.74962
rclavicle -5.68524e-014 4.81059e-014
rhumerus 60.4599 24.7201 -30.064
rradius 76.6382
rwrist 13.0229
rhand -23.6412 16.4643
rfingers 7.12502
rthumb 2.8239 -13.4968
lclavicle -5.68524e-014 4.81059e-014
lhumerus -61.6816 28.3229 46.5114
lradius 30.7468
lwrist 16.6061
lhand -19.855 15.0668
lfingers 7.12502
lthumb 6.47977 44.9477
rfemur -23.6486 -14.1812 28.1706
rtibia 26.6267
rfoot -6.19835 6.15051
rtoes 19.9232
lfemur -106.445 -9.85356 -2.58991
ltibia 85.563
lfoot 14.1799 -15.8797
ltoes -14.9355
1847
root -3.37958 18.0009 -1.21895 6.47611 -11.7495 2.64715
lowerback 22.931 9.55359 -1.01344
upperback 9.34849 11.7563 -5.32291
thorax -1.25058 5.94693 -7.86858
lowerneck -8.25582 -16.6877 -16.4857
upperneck 17.6019 -24.6026 19.3872
head 11.7457 -11.0065 5.65145
rclavicle -1.24737e-013 6.7388e-014
rhumerus 59.0497 25.1813 -30.9828
rradius 76.39
rwrist 13.1048
rhand -23.6085 16.2859
rfingers 7.12502
rthumb 2.85548 -13.6747
lclavicle -1.24737e-013 6.7388e-014
lhumerus -61.2807 27.642 46.6
lradius 30.8638
lwrist 16.722
lhand -20.0619 15.1992
lfingers 7.12502
lthumb 6.28002 45.0861
rfemur -23.6417 -14.5176 28.1959
rtibia 26.7717
rfoot -6.23966 6.26049
rtoes 19.555
lfemur -105.399 -9.81586 -3.25151
ltibia 86.1149
lfoot 13.7442 -15.1921
ltoes -14.8514
